<?xml version="1.0" encoding="UTF-8"?>
<svg width="582px" height="86px" viewBox="0 0 582 86" version="1.1" xmlns="http://www.w3.org/2000/svg" xmlns:xlink="http://www.w3.org/1999/xlink">
    <!-- Generator: Sketch 48.2 (47327) - http://www.bohemiancoding.com/sketch -->
    <title>Group 2</title>
    <desc>Created with Sketch.</desc>
    <defs></defs>
    <g id="Page-1" stroke="none" stroke-width="1" fill="none" fill-rule="evenodd">
        <g id="Group-2" fill="#000000">
            <g id="Group" fill-rule="nonzero">
                <g id="noun_75413_cc" transform="translate(9.000000, 0.000000)">
                    <path d="M82.1731392,35.030837 C81.0598706,26.0792952 77.0938511,18.1145374 71.1796117,11.9823789 L71.1796117,32.5638767 L62.4822006,32.5638767 L62.4822006,5.21585903 C56.7071197,1.9030837 50.0970874,0 43,0 C36.0420712,0 29.5711974,1.83259912 23.8656958,5.00440529 L23.8656958,32.5638767 L15.1682848,32.5638767 L15.1682848,11.6299559 C9.04530744,17.7621145 4.94012945,25.938326 3.82686084,35.030837 L0,35.030837 L0,41.5154185 L31.0323625,41.5154185 C33.6067961,45.3920705 37.9902913,48 43,48 C48.0097087,48 52.3932039,45.4625551 54.9676375,41.5154185 L86,41.5154185 L86,35.030837 L82.1731392,35.030837 Z M53.0194175,35.030837 C52.8106796,36.1585903 52.4627832,37.2863436 51.9061489,38.2731278 C51.210356,39.5418502 50.3058252,40.6696035 49.1229773,41.5154185 C47.3834951,42.8546256 45.2961165,43.6299559 43,43.6299559 C40.7038835,43.6299559 38.5469256,42.8546256 36.8770227,41.5154185 C35.763754,40.6696035 34.789644,39.5418502 34.0938511,38.2731278 C33.5372168,37.2863436 33.1893204,36.2290749 32.9805825,35.030837 C32.9110032,34.4669604 32.8414239,33.9030837 32.8414239,33.339207 C32.8414239,27.7004405 37.3640777,23.0484581 43,23.0484581 C48.6359223,23.0484581 53.1585761,27.6299559 53.1585761,33.339207 C53.1585761,33.9030837 53.0889968,34.4669604 53.0194175,35.030837 Z" id="Shape"></path>
                </g>
                <g id="noun_15684_cc" transform="translate(0.000000, 53.000000)">
                    <path d="M104.683485,7.78109173 C102.823919,7.3065091 99.9689449,14.5903208 93.2625384,14.5903208 C84.6493159,14.5903208 80.5962818,0 67.1362184,0 C56.4576285,0 53.2057511,8.364003 52.4990952,8.364003 C51.7924392,8.364003 48.5395118,0 37.8630219,0 C24.4050586,0 20.3499245,14.5903208 11.7356519,14.5903208 C5.02924545,14.5903208 2.17637143,7.3065091 0.316805772,7.78109173 C-1.42200887,8.22575502 3.52143276,33 27.0794311,33 C42.3644098,33 51.3493355,21.0518664 52.4990952,21.0518664 C53.6509549,21.0518664 62.6348305,33 77.9198092,33 C101.478858,33.0010317 106.421249,8.22575502 104.683485,7.78109173 Z" id="Shape"></path>
                </g>
            </g>
            <text id="MR-BUILDER" font-family="AmericanTypewriter, American Typewriter" font-size="72" font-weight="normal">
                <tspan x="116" y="67">MR BUILDER</tspan>
            </text>
        </g>
    </g>
</svg>